<?xml version="1.0" standalone="no"?>
<!DOCTYPE svg PUBLIC "-//W3C//DTD SVG 20010904//EN"
 "http://www.w3.org/TR/2001/REC-SVG-20010904/DTD/svg10.dtd">
<svg version="1.0" xmlns="http://www.w3.org/2000/svg"
 width="200.000000pt" height="200.000000pt" viewBox="0 0 200.000000 200.000000"
 preserveAspectRatio="xMidYMid meet">
<metadata>
Created by potrace 1.16, written by Peter Selinger 2001-2019
</metadata>
<g transform="translate(0.000000,200.000000) scale(0.100000,-0.100000)"
fill="#000000" stroke="none">
<path d="M404 1911 c-64 -47 -292 -284 -304 -314 -31 -84 -6 -128 172 -304
152 -151 173 -163 253 -150 95 16 147 127 100 216 l-16 32 485 -3 c460 -3 485
-4 505 -22 19 -18 21 -30 21 -160 0 -123 3 -145 20 -174 61 -100 206 -96 262
8 17 31 19 53 16 205 -3 170 -3 171 -36 237 -39 79 -92 129 -181 172 l-66 31
-513 3 -512 3 14 27 c8 15 15 38 16 52 6 65 0 83 -44 126 -41 41 -47 44 -98
44 -45 0 -62 -5 -94 -29z m167 -79 c21 -42 14 -72 -28 -121 -68 -80 -99 -75
527 -81 l555 -5 57 -28 c70 -34 140 -110 162 -174 12 -34 16 -85 16 -190 0
-181 -13 -212 -93 -213 -27 0 -45 7 -62 25 -24 23 -25 29 -25 160 0 165 -9
193 -72 224 -44 21 -50 21 -569 19 -490 -3 -524 -4 -527 -21 -2 -9 12 -35 31
-58 41 -47 49 -76 31 -117 -15 -36 -41 -52 -86 -52 -30 0 -50 16 -186 153
-135 137 -152 157 -152 187 0 30 17 50 152 186 83 84 161 155 172 157 36 6 80
-17 97 -51z"/>
<path d="M159 1007 c-63 -42 -70 -70 -67 -267 l3 -175 34 -63 c42 -77 94 -125
180 -166 l66 -31 513 -3 512 -3 -14 -27 c-32 -62 -24 -124 22 -173 31 -34 46
-42 84 -46 26 -3 59 -2 75 2 35 8 307 275 334 327 21 42 24 83 8 125 -12 32
-281 308 -321 329 -15 8 -50 14 -79 14 -48 0 -55 -3 -95 -44 -44 -43 -50 -61
-44 -126 1 -14 9 -38 16 -53 l15 -28 -485 3 c-460 3 -485 4 -505 22 -19 18
-21 30 -21 160 0 123 -3 145 -20 174 -44 71 -143 95 -211 49z m153 -64 c9 -11
15 -64 18 -169 l5 -153 30 -31 c16 -17 45 -35 65 -41 22 -6 220 -9 550 -7 481
3 515 4 518 21 2 9 -12 35 -31 58 -41 47 -49 76 -31 117 15 36 41 52 84 52 36
0 77 -34 228 -189 103 -106 119 -132 109 -173 -4 -13 -73 -89 -155 -171 -130
-129 -153 -147 -181 -147 -44 0 -70 16 -85 52 -18 41 -10 70 31 117 68 80 99
75 -527 81 l-555 5 -57 28 c-70 34 -140 110 -162 174 -22 65 -23 321 -1 363
26 50 110 57 147 13z"/>
</g>
</svg>
